<?xml version="1.0" encoding="UTF-8"?>
<!-- Generator: visioncortex VTracer 0.6.3 -->
<svg version="1.1" xmlns="http://www.w3.org/2000/svg" width="1280" height="1280">
    <defs>
        <clipPath id="circleClip">
            <circle cx="640" cy="640" r="640" />
        </clipPath>
    </defs>
    <g clip-path="url(#circleClip)">
        <path d="M0 0 C422.4 0 844.8 0 1280 0 C1280 422.4 1280 844.8 1280 1280 C857.6 1280 435.2 1280 0 1280 C0 857.6 0 435.2 0 0 Z " fill="#00BF65" transform="translate(0,0)"/>
        <path d="M0 0 C2.12 0 4.24 0 6.36 -0 C12.08 -0 17.79 0.01 23.51 0.01 C29.5 0.02 35.49 0.02 41.47 0.02 C52.8 0.02 64.12 0.03 75.44 0.04 C88.34 0.05 101.23 0.06 114.13 0.06 C140.65 0.07 167.16 0.09 193.67 0.11 C194.81 3.95 194.35 5.6 192.68 9.27 C192.23 10.28 191.78 11.3 191.31 12.34 C190.56 13.96 190.56 13.96 189.8 15.61 C189.29 16.73 188.79 17.84 188.27 18.99 C187.24 21.28 186.2 23.56 185.16 25.84 C183.82 28.79 182.53 31.75 181.25 34.72 C168.95 63.28 148.79 86.79 119.49 98.9 C100.59 106.07 79.99 106.55 60 106.49 C56.59 106.48 53.19 106.5 49.79 106.51 C40.15 106.55 30.5 106.55 20.85 106.55 C14.9 106.55 8.94 106.57 2.99 106.6 C-0.33 106.61 -3.65 106.6 -6.97 106.58 C-24.26 106.61 -38.4 108.84 -53.33 118.11 C-54.34 118.74 -55.36 119.36 -56.41 120.01 C-70.71 130.33 -76.92 148.38 -79.64 165.11 C-81.81 183.76 -80.87 208.11 -69.32 223.84 C-67.09 226.4 -64.78 228.77 -62.33 231.11 C-61.6 231.85 -60.88 232.58 -60.13 233.33 C-46.11 246.8 -27.05 248.48 -8.51 248.55 C-7.2 248.56 -5.88 248.57 -4.52 248.58 C-3.27 248.57 -2.03 248.56 -0.74 248.55 C0.37 248.54 1.49 248.53 2.64 248.52 C7.02 247.93 9.67 246.32 12.48 242.95 C14.06 239.21 14 235.78 13.86 231.8 C13.85 231.06 13.83 230.32 13.82 229.56 C13.79 227.74 13.73 225.93 13.67 224.11 C12.38 224.08 11.09 224.04 9.76 224 C8.05 223.93 6.33 223.87 4.61 223.8 C3.34 223.77 3.34 223.77 2.04 223.73 C-4.91 223.44 -9.86 222.31 -15.2 217.55 C-20.22 211.79 -18.67 203.25 -18.73 195.94 C-18.75 194.03 -18.79 192.11 -18.83 190.2 C-19.3 171.11 -19.3 171.11 -14.31 164.64 C-7.93 159.73 -1.73 159.68 6.02 159.71 C7.71 159.7 7.71 159.7 9.42 159.69 C13.12 159.67 16.82 159.67 20.52 159.68 C23.1 159.68 25.67 159.67 28.25 159.66 C33.65 159.66 39.04 159.66 44.43 159.67 C50.66 159.68 56.89 159.66 63.11 159.64 C69.12 159.61 75.12 159.61 81.12 159.62 C83.67 159.62 86.22 159.61 88.77 159.6 C92.33 159.58 95.89 159.59 99.46 159.61 C101.03 159.6 101.03 159.6 102.64 159.58 C108.47 159.64 112.2 160 116.67 164.11 C120.31 168.7 121.18 171.72 121.2 177.55 C121.2 178.27 121.21 179 121.22 179.75 C121.24 182.17 121.23 184.6 121.22 187.02 C121.23 188.77 121.24 190.51 121.25 192.25 C121.28 196.98 121.28 201.71 121.28 206.43 C121.28 210.38 121.29 214.33 121.29 218.28 C121.32 227.6 121.32 236.91 121.31 246.23 C121.29 255.84 121.32 265.44 121.36 275.05 C121.4 283.3 121.41 291.56 121.4 299.81 C121.4 304.74 121.4 309.66 121.43 314.59 C121.46 319.23 121.45 323.86 121.43 328.49 C121.42 330.19 121.43 331.89 121.44 333.59 C121.57 347.97 121.57 347.97 118.5 352.62 C113.64 356.94 106.8 356.06 100.7 355.97 C99.27 355.98 97.84 355.98 96.41 355.99 C92.53 356.01 88.65 355.99 84.77 355.96 C80.68 355.93 76.6 355.93 72.51 355.94 C65.64 355.94 58.76 355.91 51.88 355.86 C43.99 355.81 36.1 355.79 28.21 355.8 C20.57 355.81 12.93 355.79 5.29 355.77 C2.07 355.75 -1.15 355.75 -4.38 355.75 C-54.03 355.74 -101.13 344.3 -137.45 308.36 C-168.21 277.22 -185.44 233.47 -185.49 189.79 C-185.5 188.85 -185.5 187.91 -185.5 186.94 C-185.51 184.95 -185.51 182.97 -185.51 180.99 C-185.51 178.02 -185.53 175.04 -185.55 172.07 C-185.6 156.34 -184.58 141.33 -180.58 126.05 C-180.31 125.03 -180.05 124.01 -179.78 122.96 C-177.52 114.42 -174.82 106.22 -171.33 98.11 C-171.03 97.43 -170.74 96.75 -170.44 96.05 C-163.14 79.21 -153.83 64.56 -141.33 51.11 C-140.51 50.23 -140.51 50.23 -139.69 49.32 C-103.52 10.22 -51.07 -0.1 0 0 Z " fill="#FBFDFD" transform="translate(470.32568359375,387.886474609375)"/>
        <path d="M0 0 C6.69 1.9 13.18 4.09 19.62 6.69 C20.49 7.03 21.35 7.38 22.23 7.74 C51.83 19.85 77.97 37.77 90.94 68.07 C99.07 90.53 98.62 113.05 93 136 C92.82 136.75 92.64 137.49 92.45 138.26 C82.37 178.21 57.2 215.35 21.79 236.96 C18.24 239.06 14.64 241.05 11 243 C9.88 243.6 8.76 244.2 7.61 244.82 C-19.32 258.3 -50.11 262.18 -79.87 262.13 C-81.3 262.13 -82.72 262.13 -84.15 262.13 C-87.98 262.14 -91.81 262.14 -95.63 262.13 C-99.65 262.13 -103.67 262.13 -107.69 262.14 C-114.43 262.14 -121.16 262.14 -127.9 262.13 C-135.69 262.12 -143.47 262.13 -151.26 262.13 C-157.96 262.14 -164.67 262.14 -171.37 262.13 C-175.37 262.13 -179.37 262.13 -183.36 262.14 C-187.11 262.14 -190.86 262.14 -194.6 262.13 C-195.98 262.13 -197.35 262.13 -198.73 262.13 C-200.6 262.14 -202.48 262.13 -204.35 262.13 C-205.4 262.13 -206.45 262.13 -207.53 262.13 C-210 262 -210 262 -212 261 C-212.07 237.97 -212.12 214.95 -212.16 191.92 C-212.17 181.23 -212.19 170.54 -212.23 159.85 C-212.26 150.53 -212.28 141.22 -212.28 131.9 C-212.29 126.97 -212.3 122.03 -212.32 117.1 C-212.34 112.46 -212.34 107.81 -212.34 103.17 C-212.34 101.47 -212.35 99.76 -212.36 98.05 C-212.37 95.73 -212.37 93.4 -212.36 91.08 C-212.36 89.78 -212.37 88.48 -212.37 87.13 C-212 84 -212 84 -210.69 82.07 C-207.83 80.26 -204.74 80.84 -201.5 81.12 C-200.78 81.18 -200.06 81.24 -199.32 81.3 C-180.49 82.99 -163.23 91.49 -151 106 C-147.68 110.47 -144.78 115.18 -142 120 C-141.22 121.34 -141.22 121.34 -140.43 122.71 C-133.47 136.26 -133.78 151.8 -133.42 166.65 C-133.38 168.24 -133.34 169.83 -133.29 171.42 C-133.19 175.28 -133.09 179.14 -133 183 C-123.4 183.09 -113.8 183.16 -104.21 183.21 C-99.75 183.23 -95.29 183.26 -90.83 183.3 C-86.51 183.35 -82.19 183.37 -77.87 183.38 C-76.24 183.39 -74.61 183.4 -72.98 183.42 C-56.81 183.63 -41.65 181.15 -27 174 C-25.64 173.37 -25.64 173.37 -24.25 172.73 C-3.84 162.63 9.49 142.01 16.75 121.03 C27.04 89.23 24.3 50.39 9.1 20.62 C6.45 15.6 3.44 10.87 0.15 6.23 C-1.23 3.55 -0.86 2.78 0 0 Z " fill="#FBFDFD" transform="translate(894,598)"/>
        <path d="M0 0 C28.67 -0.02 57.34 -0.04 86.01 -0.05 C99.32 -0.06 112.63 -0.06 125.94 -0.08 C137.55 -0.09 149.16 -0.09 160.77 -0.09 C166.91 -0.1 173.05 -0.1 179.19 -0.11 C184.99 -0.11 190.78 -0.11 196.57 -0.11 C198.68 -0.11 200.8 -0.12 202.92 -0.12 C250.38 -0.2 293.72 10.62 329 44 C329.49 44.45 329.98 44.9 330.49 45.36 C340.41 54.43 347.84 64.65 355 76 C355.4 76.63 355.8 77.26 356.21 77.91 C367.28 95.54 373.17 115.17 379 135 C380 138.33 381 141.67 382 145 C381.34 145 380.68 145 380 145 C380 144.34 380 143.68 380 143 C379.14 142.63 379.14 142.63 378.26 142.25 C375.64 140.8 373.97 139.13 371.91 136.96 C371.13 136.16 370.35 135.35 369.55 134.52 C368.73 133.67 367.91 132.82 367.06 131.94 C359.82 124.56 352.88 118.35 344 113 C342.8 112.24 341.6 111.48 340.4 110.72 C304.15 87.99 257.51 78.32 215.05 76.45 C214.11 76.41 213.16 76.37 212.18 76.32 C201.66 75.89 191.14 75.83 180.61 75.8 C177.03 75.79 173.45 75.77 169.88 75.75 C159.73 75.69 149.57 75.63 139.42 75.6 C133.17 75.58 126.91 75.54 120.65 75.5 C118.29 75.48 115.94 75.48 113.58 75.47 C79.12 75.42 48.09 66.33 23 41.56 C14.56 32.88 8.39 23.15 2.88 12.44 C2.47 11.66 2.07 10.89 1.65 10.09 C1.11 8.99 1.11 8.99 0.55 7.87 C0.23 7.22 -0.1 6.57 -0.43 5.9 C-1.13 3.57 -0.65 2.3 0 0 Z " fill="#FBFDFD" transform="translate(611,495)"/>
    </g>
</svg>
